<svg width="38.000000" height="38.000000" viewBox="0 0 38 38" fill="none" xmlns="http://www.w3.org/2000/svg" xmlns:xlink="http://www.w3.org/1999/xlink">
	<desc>
			Created with Pixso.
	</desc>
	<defs/>
	<path id="Vector" d="M11.5781 1.1084C9.66211 1.19531 8.35352 1.5 7.20898 1.94531C6.02539 2.40527 5.02148 3.02051 4.02148 4.02148C3.01953 5.02148 2.4043 6.02539 1.94531 7.20898C1.5 8.35449 1.19531 9.66309 1.10742 11.5791C1.02148 13.498 1 14.1113 1 19C1 23.8887 1.02148 24.502 1.10742 26.4209C1.19531 28.3369 1.5 29.6455 1.94531 30.791C2.4043 31.9746 3.01953 32.9785 4.02148 33.9785C5.02148 34.9795 6.02539 35.5947 7.20898 36.0547C8.35352 36.5 9.66211 36.8047 11.5781 36.8916C13.498 36.9795 14.1113 37 19 37C23.8887 37 24.502 36.9795 26.4219 36.8916C28.3379 36.8047 29.6465 36.5 30.791 36.0547C31.9746 35.5947 32.9785 34.9795 33.9785 33.9785C34.9805 32.9785 35.5957 31.9746 36.0547 30.791C36.5 29.6455 36.8047 28.3369 36.8926 26.4209C36.9785 24.502 37 23.8887 37 19C37 14.1113 36.9785 13.498 36.8926 11.5791C36.8047 9.66309 36.5 8.35449 36.0547 7.20898C35.5957 6.02539 34.9805 5.02148 33.9785 4.02148C32.9785 3.02051 31.9746 2.40527 30.791 1.94531C29.6465 1.5 28.3379 1.19531 26.4219 1.1084C24.502 1.02051 23.8887 1 19 1C14.1113 1 13.498 1.02051 11.5781 1.1084Z" stroke="#FE5B00" stroke-opacity="1.000000" stroke-width="2.000000"/>
	<path id="Vector" d="M19.0078 26.9941C14.5898 26.9941 11.0078 23.4121 11.0078 18.9941C11.0078 14.5762 14.5898 10.9941 19.0078 10.9941C23.4258 10.9941 27.0078 14.5762 27.0078 18.9941C27.0078 23.4121 23.4258 26.9941 19.0078 26.9941Z" stroke="#FE5B00" stroke-opacity="1.000000" stroke-width="2.000000"/>
	<path id="Vector" d="M32.0078 8.49414C32.0078 9.875 30.8887 10.9941 29.5078 10.9941C28.127 10.9941 27.0078 9.875 27.0078 8.49414C27.0078 7.11328 28.127 5.99414 29.5078 5.99414C30.8887 5.99414 32.0078 7.11328 32.0078 8.49414Z" fill="#333333" fill-opacity="1.000000" fill-rule="evenodd"/>
	<path id="Vector" d="" fill="#FE5B00" fill-opacity="1.000000" fill-rule="evenodd"/>
</svg>
