<svg width="20.000000" height="20.000000" viewBox="0 0 20 20" fill="none" xmlns="http://www.w3.org/2000/svg" xmlns:xlink="http://www.w3.org/1999/xlink">
	<desc>
			Created with Pixso.
	</desc>
	<defs/>
	<path id="Vector" d="M14.75 1.25L5.25 1.25C4.55859 1.25 4 1.80957 4 2.5L4 17.5C4 18.1904 4.55859 18.75 5.25 18.75L14.75 18.75C15.4414 18.75 16 18.1904 16 17.5L16 2.5C16 1.80957 15.4414 1.25 14.75 1.25ZM10 17.5C9.6543 17.5 9.375 17.2197 9.375 16.875C9.375 16.5303 9.6543 16.25 10 16.25C10.3457 16.25 10.625 16.5303 10.625 16.875C10.625 17.2197 10.3457 17.5 10 17.5ZM14.75 15.625L5.25 15.625L5.25 3.125L14.75 3.125L14.75 15.625Z" fill="#F5702C" fill-opacity="1.000000" fill-rule="nonzero"/>
</svg>
