<svg width="10.000000" height="17.500000" viewBox="0 0 10 17.5" fill="none" xmlns="http://www.w3.org/2000/svg" xmlns:xlink="http://www.w3.org/1999/xlink">
	<desc>
			Created with Pixso.
	</desc>
	<defs/>
	<path id="Vector" d="M8.75 0L1.25 0C0.558594 0 0 0.55957 0 1.25L0 16.25C0 16.9404 0.558594 17.5 1.25 17.5L8.75 17.5C9.44141 17.5 10 16.9404 10 16.25L10 1.25C10 0.55957 9.44141 0 8.75 0ZM5 16.25C4.6543 16.25 4.375 15.9702 4.375 15.625C4.375 15.2798 4.6543 15 5 15C5.3457 15 5.625 15.2798 5.625 15.625C5.625 15.9702 5.3457 16.25 5 16.25ZM8.75 14.375L1.25 14.375L1.25 1.875L8.75 1.875L8.75 14.375Z" fill="#999999" fill-opacity="1.000000" fill-rule="nonzero"/>
</svg>
